<svg id="Layer_1" data-name="Layer 1" xmlns="http://www.w3.org/2000/svg" viewBox="0 0 1922 606.75"><defs><style>.cls-1{fill:none;stroke:#000;stroke-linecap:round;stroke-linejoin:round;stroke-width:2px;}</style></defs><title>pr</title><path class="cls-1" d="M311.2,681.78c5.22,9.27,10.43.1,15.65,0,6.93-.16,12.68.38,13.71-10.34.75-7.81,9.33-9.92,17.62-6.69,4.61,1.8,8.93,3.6,12.23,8.17-6.86,4.39-17.48,3.51-19.77,12.87-1.09,4.47-3.1,11,4.37,14.08,9-7.62,19-11.19,31.94-6.69,8,2.79,16.9.25,20.57-8.84,3.8-9.41,11.16-11.73,19.72-11.53,11.3.26,21.09-3.57,31.46-7.54,12.36-4.74,25.52-8.71,38,3.13,5.32,5,13.2,1.7,17.91-4.85,2.18-3,4.28-6.14,6.53-9.12,8.4-11.1,19.52-13.8,32.58-10.44,34.77,8.93,67.46,1.8,99.06-13.1,3.68-1.74,8.82-3.5,10.15-6.59,6.38-14.84,18.59-15,31.61-14.28,2.15.12,4.73,1.16,7.49-2.49.59-8.44,2-18.13,5.46-27.46,4.89-13.07,11.62-19.61,24.85-19.21,9.61.29,13.21-4.27,14.23-12.07,1.78-13.55,5.64-26.42,10.49-39.12,4.23-11.08,9.9-20,25.41-19.59-4.28-22.58,3.74-38.5,23.81-51.39,18.37-11.79,35.78-5.42,53.91-2.27,1.83-10.44,4.47-18.27,11.72-23.13,6.23-4.18,14-4.84,15.13,3.89,1.44,11.31,8.67,6.34,12,4.73,4.87-2.37,9.93-6.8,4.23-14-5.08-6.41-9.22-13.57-13.81-20.46,12.74-6,17.85-3.71,33.26,14,3.48-3.48,6.38-8.26,10.58-10.1,5.35-2.36,13.09-3.29,9.85-10.56-3.4-7.65-4.49-18.64-16.51-19.79-10.95-1.05-15.77-9.28-18-18.28-2.16-8.81-2.54-18.17-2.76-27.31-.28-11.37.36-22.83-2.82-33.87-3.38-11.76.81-21.79,6.78-31.2,2.44-3.85,4.91-7.48,6.38-11.83,2.25-6.65,2.09-12.42-5.28-15.62-4.79-2.08-9.61,1.42-13.2,9.5-12.2-4.93-23.56.49-35,3.63-14.22,3.91-27.69,5.9-37.78-8-3.6-5-8.43-3.77-13.11-3.83-7.41-.1-14.83,0-22,0-2.09-23.22-14.38-24-38.38-6.18-4.2-7-.09-15.8-5.86-22.61-5.51-1.27-10,4.17-15.78,5.67-4.05-18.31-8-24.07-24.86-24.72-25.33-1-49.21-7-73-14.62-14-4.5-28.58-2.68-43-1.48-8.5.71-16.94.16-25.37-5-2.92,12-10,11.38-20.29,10.84-25.7-1.35-48.22-12-71.65-20.22-8.17-2.86-16.46-2.42-24.8-2.54-6.22-.09-9.65,3-9,9.12.54,5.15,5.2,5.11,9,5.17A73.79,73.79,0,0,1,469,161.36c6.33,2.09,13.13,3.52,11.46,11.88-1.57,7.87-6.7,13.39-15.43,14.4-19.74,2.27-33.16-6-40.44-24.78-1.4-3.62-3.08-7.13-4.71-10.87-9,8.41-19.73,9-30.47,9.56-5.52.3-10.11-3-7.48-7.63,6.41-11.22-2.52-11.23-8.19-11.64-9.05-.66-18.23.14-27.38.7-17.75,1.09-35.62.35-53.44.3-6.81,0-13-2.89-18.13-6.67-9.85-7.22-18.91-7.54-31.53-6-26.68,3.15-54.65,4.12-79.27-11A45.64,45.64,0,0,0,147.9,113c-16.15,28.43-42.85,28.1-70.07,24.93-20.48-2.39-41.18-4.47-60-14.18-4.55-2.34-9.68-1.92-14.31-1.18-32.44,5.19-65.41-.39-97.81,5.07-15.55,2.62-30.93,6.17-46.94,5.34-12.34-.63-23.58-2.51-34.16-10.19-6.36-4.61-13.8-9.31-23.22-8.47-6.53.59-11.35,1.59-14.41,8.05-5.11,10.8-14.81,14.22-24.53,8.89-30.47-16.7-62.24-11.83-94-7.39-14,1.95-27.83,1.22-41.74,1-6.92-.09-12.4-3.73-17-9-11-12.61-24.44-16.44-40.39-10.49-7.77,2.9-14.81,1-22.23-2.42-17.4-7.9-35.75-9.12-54.73-7-5.76.63-12,3.26-13.8,5.92-9,13.06-22.43,20.34-34.1,30-7.71,6.37-11.48,16.39-5.57,27,.84,1.51.72,3.53,1.39,5.17,12.49,30.77-.36,49.56-33.93,49.56h-2.47c-.5.91-1.33,1.73-1.39,2.61-1.52,23-1.5,23-23.53,27.36-5.19,1-10.45,1.62-15.64,2.66-15.51,3.11-20.27,10.82-15.6,26,7,22.66,16.58,43.19,40.3,53.63,13,5.72,20.41,17.22,26.17,29.82,7.46,16.32,14.74,32.7,25.87,47.09,3,3.83,3.64,9.43,5.41,14.2,3.38,9.13.29,15.59-9.16,16.72-11.83,1.42-14.72,8.49-14.27,18.48.9,20-2.44,40.17,2.56,60.92-12.67,2.12-10.92,12.16-10.33,21.22.57,8.74,6.58,17.83-6.28,24.17-3.36,1.65-3.44,11.08-10.77,12.34" transform="translate(654.99 -94.1)"/><path class="cls-1" d="M311.2,687c-8.82,5.72-16.4,6.41-20.85-5.22-1.86-4.85-5.38-6.28-10.43-6.64-14.59-1.06-27.3-5.21-35.45-19.29-5.35-9.25-16.06-4.72-23.12-3.46-14.75,2.64-27.5,10.13-31.48,26.77-.57,2.39-2.19,4.54-3.21,6.58-17-.9-28.27-9.59-35.72-23.57-2.15-4-4.36-5.61-9.1-6.94a78.93,78.93,0,0,1-21.18-9.67c-15-9.6-31-12.33-49.47-8.63-27.21,5.45-54.47,11-82,15.35-18,2.85-32.84-1.64-46.91-11.08-7.38-5-15.65-7.24-23.69-10-4.76-1.6-12.1-2.11-15.25,2.49-5.64,8.24-12.29,6.12-19.88,5.25-6.14-.7-12.19-2.12-18.25-2.6-8.86-.71-17.07-.65-12.45-13.6-22-4.71-41.49-1.77-62,6.27,11.32,8.47-3.12,16.47,2.91,26.82-31.92-1-60.27,5.34-88.85,10.11-5.75,1-13,1.61-16.7-3.91-5.72-8.57-12.24-12.16-22.45-9.2-2.17.63-5.15-1.52-7.76-2.39" transform="translate(654.99 -94.1)"/><path class="cls-1" d="M-608,570.95c4.34,4.79,9.18,8.73,15.63,10.48,6,1.64,11.93,3.69,11.75,11.69-.16,7-3.88,10.38-10.32,13.27-17.4,7.82-16.8,24.82-18.15,40.2-.53,6,1.31,12.18,2.08,18.33,4-1.17,7,3.13,11.65,0,.14,22.13,13.47,15.73,25.33,13.75-.19-10-10.62-11.7-13.48-19.7a44.22,44.22,0,0,1,34.13-.53c12.39,4.72,25.14,3.43,37.85,3.88,7.87.28,12.67-2.78,14.35-10.52,5.2,1.36,10.48,2.76,15.54,4.28,9.33,2.8,16.18-.32,17.83-8.3,1.51-7.3,5.11-6.79,9.65-6.33,12,1.22,27.34-5.66,32.9,12.87.33,1.12,5.16,1.86,7.49,1.24,12.13-3.21,25.87-10.79,26.12,11.89,9.34,1.69,10.41,12.85,19.39,16.12,8.2,3,15,.46,22.33-.53,3.54-.47,7-1.51,10.38-2.27,1.25-6.92-6.61-8.11-7.8-13.32l11.77-2.61" transform="translate(654.99 -94.1)"/><path class="cls-1" d="M1014,454.91c2.41,14.65-1.32,20.27-15.65,23.45-2.58.57-6,0-7.7,1.47-11.33,9.65-24.25,10.13-37.95,7.77-2.33-.4-5.47-1.2-7.11,4.7,9.5,8.08,17.13,19.51,26.84,28.95,10.71,10.4,24.56,6.06,34.72.82,13.35-6.88,26-4.93,39.44-5,9.93-.07,20-.38,30-1,4-.26,2.07-5.32,2.87-8.31,11,6.9,11.25,7,15.23-2,.93-2.11,2.09-1.26,2.76-1.14,11.31,2.06,21.19-7.05,32.62-4,8.23,2.18,16.84,5.09,20.85-6.49,9.28,1.18,16.14-9.71,25.8-5.64,1.76,3.54-2.71,4.27-2.34,7.31,3.93,4.3,8.07,1.89,11.71-.43,14.37-9.16,28.78-17.42,47-13.09,6.49,1.54,11.77-1,14.6-8.36a48.89,48.89,0,0,0-23.73-11.2c-28.68-5.26-56.83-13.1-86.05-15.78-15.87-1.46-49.5,3.05-62.63,10.65-1.17.67-2.67,1.43-3.88,1.25-13.41-2-23.84,5.82-35.22,10.5-7.14,2.94-14.26,4.77-20.86-1.3" transform="translate(654.99 -94.1)"/><path class="cls-1" d="M1178.25,255.42a24.81,24.81,0,0,0,2.62,2.59c15.91,11.71,33,19.26,53.46,15.76,5.49-.94,10.29,2,12.87,6.51,3.95,7,10.16,8.4,18.64,7.94-1,4.57,1.84,10.24-1.64,11.08-7.93,1.91-6.62,12.26-14.24,13.47-.42.07-1,.19-1.28,0-10.09-7.92-22-7.6-33.91-8.1-1.73-.07-5-2.71-5.28-6.21-.23-3-2.29-5.55-5.14-5.08-11.69,1.94-15.8-5.5-18.13-14.52-1.4-5.4-5.66-7.33-9.19-10.49-4.42-4-7.19-8.6-.08-12.95" transform="translate(654.99 -94.1)"/><path class="cls-1" d="M-334.19,654.4c2.95,6.94,8.25,10.73,15.65,11.73" transform="translate(654.99 -94.1)"/></svg>